# xmcd
#
# Track frame offsets:
#	150
#	18632
#	38594
#	58181
#	69296
#	87746
#	100818
#	116587
#	136621
#
# Disc length: 2059 seconds
#
# Revision: 2
# Processed by: cddbd v1.5.1PL2 Copyright (c) Steve Scherf et al.
# Submitted via: audiograbber 1.83.01
#
DISCID=73080909
DTITLE=Louis King - Sharp...Like A Bowling Ball
DYEAR=2002
DGENRE=Blues
TTITLE0=Cryin' Shame
TTITLE1=Real Thing
TTITLE2=Sharp...Like A Bowling Ball
TTITLE3=Lonesome Dreamer
TTITLE4=Dirty Dog
TTITLE5=Creaky Old Bed (All I Want)
TTITLE6=200 Miles
TTITLE7=She's High Wide And Handsome
TTITLE8=You Knock Me Out
EXTD=
EXTT0=
EXTT1=
EXTT2=
EXTT3=
EXTT4=
EXTT5=
EXTT6=
EXTT7=
EXTT8=
PLAYORDER=
